<svg width="55" height="60" viewBox="0 0 55 60" fill="none" xmlns="http://www.w3.org/2000/svg">
<path d="M31.7456 2.41687C31.344 2.81698 30.9967 3.26034 30.6819 3.71452C30.6656 3.74155 30.6385 3.76318 30.6222 3.79021C30.3075 4.26061 30.0524 4.76345 29.8353 5.26088C29.8299 5.28792 29.8136 5.30954 29.8082 5.33117C29.5965 5.86645 29.4283 6.40714 29.3252 6.95864C29.3197 6.96945 29.3197 6.96945 29.3197 6.98027C28.7662 9.77562 29.5857 12.7764 31.7619 14.9446L39.5715 22.7197L45.8669 28.9916L39.5769 35.2636L27.4528 47.3425C27.4148 47.375 27.3877 47.4236 27.3497 47.4615C27.3443 47.4561 27.3443 47.4561 27.3334 47.4507L15.2039 35.3663L8.90854 29.0998C8.90854 29.0998 8.9031 29.0943 8.89767 29.0889L15.1985 22.8116L22.9972 15.0419C26.4759 11.5761 26.4759 5.96918 23.008 2.50879C23.008 2.50879 21.5482 1.04893 20.5876 0.0865098C22.9212 2.73587 16.7126 8.76994 16.7126 8.76994L14.7318 10.738L2.61313 22.817C-0.871044 26.2774 -0.871044 31.9005 2.61313 35.3663C2.61313 35.3663 2.61313 35.3663 2.61856 35.3663L14.7426 47.4507L21.038 53.7226L27.3334 60C27.3768 59.9676 27.3931 59.9135 27.4365 59.8865C27.4365 59.8865 27.442 59.8865 27.4474 59.8865L33.7482 53.6091L40.0436 47.3479L49.948 37.4696C50.876 36.5504 52.0863 35.3393 52.1568 35.269H52.1623C52.1623 35.2636 52.1623 35.2636 52.1677 35.2636C52.4879 34.95 52.7755 34.6148 53.036 34.2633C53.0415 34.2579 53.0469 34.2471 53.0523 34.2417V34.2363C53.1663 34.0849 53.2694 33.9335 53.3725 33.7767C53.3888 33.7551 53.4051 33.7226 53.4213 33.701C53.4213 33.701 53.4213 33.701 53.4213 33.6956C53.6981 33.263 53.9261 32.8089 54.1214 32.3331C54.1269 32.3222 54.1323 32.306 54.1431 32.2844C54.2408 32.0411 54.3222 31.7978 54.3982 31.5437V31.5383V31.5328C55.2991 28.5212 54.561 25.1149 52.1731 22.7305C52.1731 22.7305 50.7132 21.276 49.7472 20.3082V20.3136L40.0436 10.6515L38.0627 8.67802L37.7751 8.39146C36.5866 7.1641 32.1581 2.30333 34.1932 0.00540699L34.1878 0C33.2055 0.951609 31.7456 2.41687 31.7456 2.41687Z" fill="url(#paint0_linear_483_2537)"/>
<defs>
<linearGradient id="paint0_linear_483_2537" x1="27.3809" y1="59.9972" x2="27.3809" y2="-0.00729565" gradientUnits="userSpaceOnUse">
<stop offset="0.00322899" stop-color="#EB5F40"/>
<stop offset="1" stop-color="#E41F13"/>
</linearGradient>
</defs>
</svg>
