<?xml version="1.0" encoding="UTF-8"?>
<svg id="Layer_2" data-name="Layer 2" xmlns="http://www.w3.org/2000/svg" xmlns:xlink="http://www.w3.org/1999/xlink" viewBox="0 0 169.18 75.18">
  <defs>
    <linearGradient id="linear-gradient" x1="82.86" y1="1239.01" x2="82.86" y2="1188.3" gradientTransform="translate(0 -1188.3)" gradientUnits="userSpaceOnUse">
      <stop offset="0" stop-color="#eb5f40"/>
      <stop offset="1" stop-color="#e41f13"/>
    </linearGradient>
  </defs>
  <g id="Layer_2-2" data-name="Layer 2">
    <g id="Layer_1-2" data-name="Layer 1-2">
      <path d="M86.55,2.02c-.34.34-.63.71-.9,1.1-.01.02-.04.04-.05.06-.27.4-.48.82-.66,1.24,0,.02-.02.04-.02.06-.18.45-.32.91-.41,1.38-.06.31-.06.32,0,.02-.47,2.36.22,4.9,2.06,6.73l6.6,6.57,5.32,5.3-5.31,5.3-10.24,10.21s-.06.07-.09.1c-.02.02-.02.02-.01,0l-10.25-10.21-5.32-5.29h0l5.32-5.3,6.59-6.56c2.94-2.93,2.94-7.67,0-10.59,0,0-1.23-1.23-2.05-2.05,1.97,2.24-3.27,7.34-3.27,7.34l-1.67,1.66-10.24,10.21c-2.94,2.92-2.94,7.68,0,10.6h0l10.24,10.21,5.32,5.3,5.32,5.3s.05-.07.09-.1h0l5.32-5.3,5.32-5.29,8.37-8.35c.78-.78,1.81-1.8,1.87-1.86h0c.27-.26.51-.55.73-.85,0,0,0-.01.01-.02h0c.1-.13.18-.26.27-.39.01-.02.03-.05.04-.06h0c.23-.37.43-.75.59-1.16,0,0,0-.02.02-.04.08-.21.15-.41.21-.63h0c.76-2.55.14-5.43-1.88-7.45,0,0-1.23-1.23-2.05-2.05h0l-8.2-8.16-1.67-1.67-.24-.24c-1-1.04-4.75-5.14-3.03-7.09h0c-.83.8-2.06,2.04-2.06,2.04v-.02Z" fill="url(#linear-gradient)"/>
    </g>
    <g id="uuid-551f7806-cd1c-440b-b7e5-cdc7b7048fc3" data-name="Layer 2-2">
      <g>
        <path d="M13.36,74.37c-.68.21-1.54.39-2.57.55s-2.11.25-3.25.25-2.22-.18-3.15-.53c-.93-.35-1.71-.85-2.37-1.51-.65-.66-1.16-1.45-1.5-2.38-.35-.93-.52-1.98-.52-3.15s.15-2.19.44-3.12c.29-.93.72-1.74,1.29-2.4.57-.67,1.26-1.18,2.07-1.54.81-.36,1.75-.54,2.81-.54.72,0,1.35.08,1.9.25.55.16,1.02.35,1.42.55v-6.96l3.43-.55v21.07h0ZM3.52,67.52c0,1.48.36,2.64,1.08,3.48.72.84,1.71,1.26,2.98,1.26.55,0,1.02-.02,1.4-.07.39-.05.71-.1.95-.15v-8.32c-.3-.21-.71-.39-1.21-.57-.5-.17-1.04-.26-1.6-.26-1.25,0-2.16.42-2.74,1.25-.57.83-.86,1.96-.86,3.38Z"/>
        <path d="M28.34,59.95c1.13,0,2.09.14,2.87.42.77.28,1.39.67,1.86,1.16.46.5.79,1.11.99,1.82.2.71.3,1.49.3,2.34v8.79c-.53.11-1.33.25-2.4.4-1.07.16-2.27.24-3.62.24-.89,0-1.7-.08-2.44-.25-.74-.16-1.37-.43-1.88-.8-.52-.37-.93-.85-1.22-1.44-.29-.59-.44-1.32-.44-2.19s.17-1.53.5-2.11c.33-.57.78-1.04,1.35-1.4s1.22-.62,1.97-.78c.75-.16,1.53-.24,2.34-.24.38,0,.77.02,1.19.07s.86.12,1.33.24v-.55c0-.39-.05-.76-.14-1.11-.1-.35-.26-.66-.5-.93s-.55-.48-.94-.63c-.39-.15-.88-.22-1.46-.22-.79,0-1.52.05-2.18.16s-1.2.24-1.62.39l-.43-2.72c.44-.15,1.07-.3,1.9-.44.84-.14,1.72-.21,2.67-.21h0ZM28.62,72.46c1.06,0,1.86-.05,2.41-.16v-3.72c-.19-.05-.46-.11-.82-.16s-.76-.08-1.19-.08c-.38,0-.76.03-1.15.08s-.74.16-1.05.31c-.31.15-.56.36-.75.63s-.28.61-.28,1.01c0,.79.26,1.35.77,1.65s1.21.45,2.07.45h-.01Z"/>
        <path d="M52.67,63.33c-.28-.09-.67-.19-1.18-.29-.5-.1-1.08-.15-1.74-.15-.38,0-.78.04-1.21.11s-.72.14-.89.19v11.63h-3.43v-13.82c.66-.24,1.49-.47,2.48-.68.99-.21,2.1-.32,3.31-.32.22,0,.49,0,.79.04.3.03.61.06.91.11s.6.1.88.16c.28.06.51.12.68.18,0,0-.6,2.84-.6,2.84Z"/>
        <path d="M64.75,65.97c.44-.44.9-.92,1.39-1.43s.97-1.02,1.44-1.53.92-1,1.35-1.47.79-.88,1.09-1.23h4.06c-.94,1.04-1.94,2.11-2.98,3.22-1.05,1.11-2.1,2.19-3.15,3.25.56.46,1.16,1.02,1.78,1.68.62.66,1.22,1.36,1.81,2.1s1.13,1.48,1.64,2.22.94,1.43,1.27,2.05h-3.97c-.34-.57-.73-1.17-1.18-1.8-.44-.63-.92-1.24-1.43-1.83-.51-.59-1.03-1.15-1.56-1.68s-1.05-.98-1.56-1.35v6.66h-3.43v-20.98l3.43-.55v12.68h0Z"/>
        <path d="M108.25,67.57c0,1.16-.17,2.22-.52,3.15s-.85,1.74-1.5,2.4c-.65.67-1.44,1.17-2.37,1.53-.93.35-1.98.53-3.15.53s-2.22-.08-3.25-.25c-1.03-.16-1.88-.35-2.57-.55v-20.53l3.43-.55v7.52c.4-.21.88-.39,1.46-.55s1.21-.25,1.92-.25c1.04,0,1.97.18,2.79.54s1.51.87,2.05,1.54c.55.67.97,1.47,1.26,2.4.29.94.44,1.97.44,3.1v-.03ZM104.73,67.52c0-1.43-.29-2.55-.87-3.38-.58-.83-1.49-1.25-2.74-1.25-.57,0-1.1.08-1.6.25-.5.16-.9.35-1.21.55v8.35c.24.05.56.11.95.15.39.05.86.07,1.4.07,1.27,0,2.26-.42,2.98-1.26.72-.84,1.08-2,1.08-3.48h0Z"/>
        <path d="M129.63,74.37c-.66.16-1.52.34-2.58.51-1.06.17-2.22.26-3.49.26-1.19,0-2.19-.16-2.99-.5-.8-.33-1.44-.79-1.93-1.39-.48-.59-.82-1.3-1.04-2.12-.21-.82-.31-1.73-.31-2.7v-8.13h3.43v7.6c0,1.55.23,2.66.7,3.33.46.67,1.27,1,2.43,1,.42,0,.86-.02,1.32-.05.46-.04.81-.08,1.04-.14v-11.74h3.43v14.06h0Z"/>
        <path d="M148.12,63.33c-.28-.09-.68-.19-1.18-.29-.5-.1-1.08-.15-1.74-.15-.38,0-.78.04-1.21.11-.43.07-.72.14-.89.19v11.63h-3.43v-13.82c.66-.24,1.49-.47,2.48-.68.99-.21,2.1-.32,3.31-.32.23,0,.49,0,.79.04.3.03.6.06.91.11.3.05.6.1.88.16s.51.12.68.18l-.6,2.84h0Z"/>
        <path d="M156.78,60.78c.66-.18,1.52-.36,2.58-.53,1.06-.16,2.23-.25,3.52-.25,1.21,0,2.22.16,3.04.48.81.32,1.46.78,1.94,1.36s.82,1.29,1.02,2.11.3,1.73.3,2.7v8.16h-3.43v-7.63c0-.78-.05-1.44-.16-1.98s-.27-.99-.51-1.33c-.24-.34-.56-.59-.96-.75-.41-.16-.9-.24-1.49-.24-.43,0-.89.03-1.36.08-.47.05-.82.1-1.05.14v11.71h-3.43v-14.04h-.01Z"/>
      </g>
    </g>
  </g>
</svg>