<?xml version="1.0" encoding="UTF-8"?>
<svg id="Layer_2" data-name="Layer 2" xmlns="http://www.w3.org/2000/svg" xmlns:xlink="http://www.w3.org/1999/xlink" viewBox="0 0 46.24 50.71">
  <defs>
    <linearGradient id="linear-gradient" x1="23.12" y1="1239.01" x2="23.12" y2="1188.3" gradientTransform="translate(0 -1188.3)" gradientUnits="userSpaceOnUse">
      <stop offset="0" stop-color="#eb5f40"/>
      <stop offset="1" stop-color="#e41f13"/>
    </linearGradient>
  </defs>
  <g id="Layer_2-2" data-name="Layer 2">
    <g id="Layer_1-2" data-name="Layer 1-2">
      <path d="M26.81,2.02c-.34.34-.63.71-.9,1.1-.01.02-.04.04-.05.06-.27.4-.48.82-.66,1.24,0,.02-.02.04-.02.06-.18.45-.32.91-.41,1.38-.06.31-.06.32,0,.02-.47,2.36.22,4.9,2.06,6.73l6.6,6.57,5.32,5.3-5.31,5.3-10.24,10.21s-.06.07-.09.1c-.02.02-.02.02-.01,0l-10.25-10.21-5.32-5.29h0l5.32-5.3,6.59-6.56c2.94-2.93,2.94-7.67,0-10.59,0,0-1.23-1.23-2.05-2.05,1.97,2.24-3.27,7.34-3.27,7.34l-1.67,1.66L2.2,19.3c-2.94,2.92-2.94,7.68,0,10.6h0l10.24,10.21,5.32,5.3,5.32,5.3s.05-.07.09-.1h0l5.32-5.3,5.32-5.29,8.37-8.35c.78-.78,1.81-1.8,1.87-1.86h0c.27-.26.51-.55.73-.85,0,0,0-.01.01-.02h0c.1-.13.18-.26.27-.39.01-.02.03-.05.04-.06h0c.23-.37.43-.75.59-1.16,0,0,0-.02.02-.04.08-.21.15-.41.21-.63h0c.76-2.55.14-5.43-1.88-7.45,0,0-1.23-1.23-2.05-2.05h0l-8.2-8.16-1.67-1.67-.24-.24c-1-1.04-4.75-5.14-3.03-7.09h0c-.83.8-2.06,2.04-2.06,2.04v-.02Z" fill="url(#linear-gradient)"/>
    </g>
  </g>
</svg>